# xmcd
# Track frame offsets:
# 150
# 10684
# 24490
# 34517
# 48100
# 65464
# 79580
# 93052
# 102450
# 114680
# 127832
# 141472
# 157735
# 169867
#
# Disc length: 2438 seconds
# Revision: 2
# Processed by: cddbd v1.5.1PL0 Copyright (c) Steve Scherf et al.
# Submitted via: VisiTrax 2.9.9.202 - For more info visit www.synapsa.com
#
DISCID=a109840e
DTITLE=River Band - Greatest Hats
DYEAR=1995
DGENRE=Country
TTITLE0=It Only Hurts When I Laugh
TTITLE1=Just Call Me Lonesome
TTITLE2=The Lord Made A Hobo Out Of Me
TTITLE3=Don't Think Twice
TTITLE4=Old Heart
TTITLE5=Honky Tonk Blues
TTITLE6=Just One Memory Too Much
TTITLE7=Can You Forgive
TTITLE8=Get Back To The Country
TTITLE9=He's A Good Ol' Boy
TTITLE10=Jukebox In My Mind
TTITLE11=Fallin' Never Felt So Good
TTITLE12=Ever So Young
TTITLE13=Dust On My Saddle
EXTD=
EXTT0=
EXTT1=
EXTT2=
EXTT3=
EXTT4=
EXTT5=
EXTT6=
EXTT7=
EXTT8=
EXTT9=
EXTT10=
EXTT11=
EXTT12=
EXTT13=
PLAYORDER=
